<?xml version="1.0" encoding="UTF-8"?>
<svg version="1.1" xmlns="http://www.w3.org/2000/svg" width="59" height="59">
<path d="M0 0 C19.47 0 38.94 0 59 0 C59 19.47 59 38.94 59 59 C39.53 59 20.06 59 0 59 C0 39.53 0 20.06 0 0 Z " fill="#090D0C" transform="translate(0,0)"/>
<path d="M0 0 C1.60875 -0.04125 3.2175 -0.0825 4.875 -0.125 C5.77992187 -0.14820312 6.68484375 -0.17140625 7.6171875 -0.1953125 C10 0 10 0 12 2 C12.34361606 5.95158471 12.08901197 8.60535554 10 12 C10.66 12 11.32 12 12 12 C12.66 13.65 13.32 15.3 14 17 C11.625 16.8125 11.625 16.8125 9 16 C7.6875 13.4375 7.6875 13.4375 7 11 C6.01 11 5.02 11 4 11 C4 12.98 4 14.96 4 17 C2.68 17 1.36 17 0 17 C0 11.39 0 5.78 0 0 Z " fill="#019F6E" transform="translate(33,21)"/>
<path d="M0 0 C0.66 0.33 1.32 0.66 2 1 C2.36923077 6.53846154 2.36923077 6.53846154 0.5 8.875 C-0.2425 9.431875 -0.2425 9.431875 -1 10 C-3.5 8.8125 -3.5 8.8125 -6 7 C-6.3125 4.3125 -6.3125 4.3125 -6 2 C-3.03 2.495 -3.03 2.495 0 3 C0 2.01 0 1.02 0 0 Z " fill="#01A36B" transform="translate(43,22)"/>
<path d="M0 0 C2.84383123 1.2748209 5.13754018 2.45137078 7 5 C6.90546875 7.9304688 5.98397203 9.01861313 4.0625 11.25 C2 13 2 13 0 13 C0.309375 12.4225 0.61875 11.845 0.9375 11.25 C2.36547957 8.2353796 2.36547957 8.2353796 3 5 C1.60411246 3.35405861 1.60411246 3.35405861 0 2 C0 1.34 0 0.68 0 0 Z " fill="#029161" transform="translate(3,21)"/>
<path d="M0 0 C2.99324263 1.0975223 3.84610901 1.67682892 5.25 4.625 C5.4975 5.40875 5.745 6.1925 6 7 C3.625 6.75 3.625 6.75 1 6 C-0.375 4.0625 -0.375 4.0625 -1 2 C-0.67 1.34 -0.34 0.68 0 0 Z " fill="#01A66B" transform="translate(41,31)"/>
<path d="M0 0 C1.32 0 2.64 0 4 0 C4 1.65 4 3.3 4 5 C2.68 5 1.36 5 0 5 C0 3.35 0 1.7 0 0 Z " fill="#073725" transform="translate(37,24)"/>
</svg>
